<?xml version="1.0" encoding="UTF-8"?>
<svg id="Logos" xmlns="http://www.w3.org/2000/svg" viewBox="0 0 150 150">
  <defs>
    <style>
      .cls-1 {
        fill: none;
        stroke: #c8102e;
        stroke-width: 1.25px;
      }

      .cls-1, .cls-2, .cls-3 {
        stroke-miterlimit: 10;
      }

      .cls-4 {
        fill: #50595e;
      }

      .cls-5, .cls-2 {
        fill: #20282f;
      }

      .cls-6 {
        fill: #c8102e;
      }

      .cls-2, .cls-3 {
        stroke: #20282f;
        stroke-width: 2px;
      }

      .cls-3 {
        fill: #fff;
      }
    </style>
  </defs>
  <g id="Certification_Xpert_Pressed_Large_Text" data-name="Certification / Xpert / Pressed/ Large Text">
    <path class="cls-2" d="M75,11.75C38.17,11.75,8.32,41.61,8.32,78.43c0,18.37,7.43,35,19.45,47.06,1.71-1.56,3.5-3.03,5.36-4.42-11.05-10.84-17.91-25.94-17.91-42.64,0-33.01,26.76-59.78,59.78-59.78s59.78,26.76,59.78,59.78c0,16.71-6.86,31.8-17.91,42.64,1.86,1.39,3.65,2.86,5.36,4.42,12.02-12.06,19.45-28.69,19.45-47.06,0-36.83-29.85-66.68-66.68-66.68Z"/>
    <circle class="cls-3" cx="75" cy="78.58" r="59.67"/>
    <g>
      <path class="cls-4" d="M46.81,112.55l1.6,2.66h.06l1.61-2.66h1.5l-2.24,3.64,2.28,3.64h-1.53l-1.62-2.65h-.06l-1.62,2.65h-1.52l2.3-3.64-2.27-3.64h1.51Z"/>
      <path class="cls-4" d="M52.55,121.87v-7.5h1.26v.9h.08c.07-.13.16-.27.28-.42.12-.15.28-.28.49-.39.21-.11.47-.16.79-.16.42,0,.8.11,1.14.32.34.21.61.53.81.95s.3.93.3,1.54-.1,1.11-.29,1.53c-.2.42-.46.74-.8.96-.34.22-.72.33-1.15.33-.31,0-.57-.05-.78-.16-.21-.1-.37-.23-.5-.38-.12-.15-.22-.29-.29-.42h-.05v2.91h-1.29ZM53.81,117.1c0,.35.05.66.15.93.1.26.25.47.44.62.19.15.42.22.69.22s.52-.08.71-.23c.19-.15.34-.36.44-.63.1-.27.15-.57.15-.91s-.05-.64-.15-.9c-.1-.26-.24-.47-.43-.62-.19-.15-.43-.22-.72-.22s-.51.07-.7.22-.34.35-.44.61c-.1.26-.15.57-.15.92Z"/>
      <path class="cls-4" d="M61.21,119.93c-.55,0-1.02-.11-1.42-.34-.4-.23-.7-.55-.92-.97-.21-.42-.32-.92-.32-1.49s.11-1.05.32-1.48c.21-.42.51-.76.9-.99.39-.24.84-.36,1.36-.36.34,0,.65.05.95.16.3.11.56.27.8.5.23.23.41.51.54.86.13.35.2.76.2,1.24v.39h-4.47v-.87h3.24c0-.25-.06-.47-.16-.66-.1-.19-.25-.35-.43-.46-.19-.11-.4-.17-.65-.17-.26,0-.49.06-.69.19-.2.13-.35.29-.46.5-.11.21-.17.43-.17.67v.76c0,.32.06.59.17.81.12.23.28.4.49.52.21.12.45.18.73.18.19,0,.36-.03.51-.08.15-.05.28-.13.39-.24.11-.1.2-.23.25-.39l1.2.13c-.08.32-.22.59-.43.83s-.48.42-.81.55-.71.19-1.13.19Z"/>
      <path class="cls-4" d="M64.72,119.83v-5.45h1.25v.91h.06c.1-.32.27-.56.51-.73.24-.17.52-.26.83-.26.07,0,.15,0,.24,0s.16.01.22.03v1.18c-.05-.02-.14-.04-.26-.05-.12-.01-.23-.02-.34-.02-.23,0-.45.05-.63.15s-.33.24-.44.42c-.11.18-.16.38-.16.61v3.21h-1.29Z"/>
      <path class="cls-4" d="M71.71,114.37v.99h-3.14v-.99h3.14ZM69.35,113.07h1.29v5.12c0,.17.03.3.08.4.05.09.12.15.21.19s.18.05.29.05c.08,0,.15,0,.22-.02.07-.01.12-.02.15-.03l.22,1c-.07.02-.17.05-.29.08-.13.03-.28.04-.46.05-.32,0-.61-.04-.87-.15-.26-.11-.46-.28-.61-.5s-.22-.51-.22-.85v-5.33Z"/>
      <path class="cls-4" d="M79.28,114.55c-.03-.31-.17-.55-.42-.72s-.56-.26-.95-.26c-.27,0-.51.04-.71.12s-.35.2-.45.34c-.1.14-.16.3-.16.49,0,.15.04.28.1.39.07.11.17.21.29.28.12.08.25.14.4.19.15.05.29.1.44.13l.68.17c.28.06.54.15.79.26.25.11.48.25.69.41s.36.37.48.6.18.51.18.82c0,.43-.11.8-.33,1.12s-.53.58-.94.76c-.41.18-.91.27-1.49.27s-1.06-.09-1.47-.26c-.42-.17-.74-.43-.97-.77-.23-.34-.36-.75-.38-1.23h1.3c.02.25.1.46.23.63.14.17.32.29.54.38.22.08.47.12.74.12s.54-.04.75-.13c.22-.09.39-.21.51-.36.12-.16.19-.34.19-.55,0-.19-.06-.35-.17-.47-.11-.12-.26-.23-.46-.31s-.42-.16-.68-.23l-.83-.21c-.6-.15-1.07-.39-1.42-.7-.35-.31-.52-.73-.52-1.25,0-.43.12-.8.35-1.13s.55-.57.95-.75.86-.27,1.37-.27.97.09,1.36.27.7.43.92.74c.22.32.34.68.34,1.09h-1.27Z"/>
      <path class="cls-4" d="M84.17,119.93c-.55,0-1.02-.11-1.42-.34-.4-.23-.7-.55-.92-.97-.21-.42-.32-.92-.32-1.49s.11-1.05.32-1.48c.21-.42.51-.76.9-.99.39-.24.84-.36,1.36-.36.34,0,.65.05.95.16.3.11.56.27.8.5.23.23.41.51.54.86.13.35.2.76.2,1.24v.39h-4.47v-.87h3.24c0-.25-.06-.47-.16-.66-.1-.19-.25-.35-.43-.46-.19-.11-.4-.17-.65-.17-.26,0-.49.06-.69.19-.2.13-.35.29-.46.5-.11.21-.17.43-.17.67v.76c0,.32.06.59.17.81.12.23.28.4.49.52.21.12.45.18.73.18.19,0,.36-.03.51-.08.15-.05.28-.13.39-.24.11-.1.2-.23.25-.39l1.2.13c-.08.32-.22.59-.43.83s-.48.42-.81.55-.71.19-1.13.19Z"/>
      <path class="cls-4" d="M87.68,119.83v-5.45h1.25v.91h.06c.1-.32.27-.56.51-.73.24-.17.52-.26.83-.26.07,0,.15,0,.24,0s.16.01.22.03v1.18c-.05-.02-.14-.04-.26-.05-.12-.01-.23-.02-.34-.02-.23,0-.45.05-.63.15s-.33.24-.44.42c-.11.18-.16.38-.16.61v3.21h-1.29Z"/>
      <path class="cls-4" d="M92.3,113.6c-.2,0-.38-.07-.53-.2-.15-.14-.22-.3-.22-.49s.07-.36.22-.5c.15-.14.32-.2.53-.2s.38.07.53.2.22.3.22.5-.07.36-.22.49-.32.2-.53.2ZM91.65,119.83v-5.45h1.29v5.45h-1.29Z"/>
      <path class="cls-4" d="M96.67,119.93c-.55,0-1.02-.11-1.42-.34-.4-.23-.7-.55-.92-.97-.21-.42-.32-.92-.32-1.49s.11-1.05.32-1.48c.21-.42.51-.76.9-.99.39-.24.84-.36,1.36-.36.34,0,.65.05.95.16.3.11.57.27.8.5.23.23.41.51.54.86.13.35.2.76.2,1.24v.39h-4.47v-.87h3.24c0-.25-.06-.47-.16-.66-.1-.19-.25-.35-.43-.46-.19-.11-.4-.17-.65-.17-.26,0-.49.06-.69.19-.2.13-.35.29-.46.5-.11.21-.17.43-.17.67v.76c0,.32.06.59.17.81.12.23.28.4.49.52.21.12.45.18.73.18.19,0,.36-.03.51-.08.15-.05.28-.13.39-.24.11-.1.2-.23.25-.39l1.2.13c-.08.32-.22.59-.43.83s-.48.42-.81.55-.71.19-1.13.19Z"/>
      <path class="cls-4" d="M104.5,115.81l-1.17.13c-.03-.12-.09-.23-.17-.33-.08-.1-.19-.19-.33-.25-.14-.06-.31-.1-.5-.1-.27,0-.49.06-.67.17-.18.12-.27.27-.27.45,0,.16.06.29.18.39.12.1.32.18.59.25l.93.2c.52.11.9.29,1.15.53.25.24.38.56.38.95,0,.34-.1.65-.3.91-.2.26-.47.47-.82.61s-.75.22-1.21.22c-.67,0-1.21-.14-1.61-.42-.41-.28-.65-.67-.73-1.17l1.25-.12c.06.25.18.43.36.56.18.12.42.19.72.19s.55-.06.74-.19c.19-.13.28-.28.28-.46,0-.16-.06-.29-.18-.39-.12-.1-.3-.18-.56-.23l-.93-.2c-.52-.11-.91-.29-1.16-.55-.25-.26-.38-.59-.37-.99,0-.34.09-.63.28-.88.19-.25.45-.44.78-.58.33-.14.72-.2,1.15-.2.64,0,1.14.14,1.51.41s.6.64.68,1.1Z"/>
    </g>
    <g>
      <path class="cls-6" d="M56.5,42.96c-1.79,0-3.2,1.2-3.2,2.72,0,1.52,1.41,2.7,3.2,2.7,1.79,0,3.2-1.18,3.2-2.7,0-1.52-1.41-2.72-3.2-2.72M56.5,50.21c-2.82,0-5.03-1.98-5.03-4.53,0-2.55,2.21-4.55,5.03-4.55,2.82,0,5.03,2,5.03,4.55,0,2.55-2.21,4.53-5.03,4.53"/>
      <path class="cls-6" d="M74.48,50.21c-1.01,0-1.83-.84-1.83-1.87v-3.77c0-.9-.78-1.62-1.75-1.62s-1.73.72-1.73,1.62v5.64c-1.01,0-1.83-.82-1.83-1.83v-3.81c0-.9-.78-1.62-1.75-1.62s-1.74.72-1.74,1.62v3.79c0,1.01-.82,1.85-1.83,1.85v-5.64c0-1.9,1.6-3.45,3.56-3.45,1.06,0,2.02.44,2.66,1.14.65-.71,1.6-1.14,2.65-1.14,1.98,0,3.58,1.54,3.58,3.45v5.64Z"/>
      <path class="cls-6" d="M80.42,50.2c-.48,0-.93-.04-1.35-.13-.95-.27-1.51-1.26-1.26-2.21.04-.11.07-.23.11-.32l.02-.02c.51.57,1.35.86,2.48.86,1.68,0,2.99-1.18,2.99-2.67,0-1.54-1.31-2.76-2.99-2.76-1.58,0-3.16.88-3.16,2.8v5.92c0,.99-.84,1.79-1.83,1.79v-7.71c0-2.67,2.1-4.63,4.99-4.63,1.28,0,2.47.48,3.39,1.31.92.86,1.43,2.02,1.43,3.28,0,2.52-2.11,4.49-4.82,4.49"/>
      <path class="cls-6" d="M93.46,39.4h-3.91s0,10.82,0,10.82h-.08c-.97,0-1.75-.84-1.75-1.83v-8.99s-3.91,0-3.91,0c-.99,0-1.79-.82-1.79-1.81h13.26c0,.99-.8,1.81-1.81,1.81"/>
      <path class="cls-6" d="M105.06,39.47l-2.6,5.71h4.9s-2.62-5.73-2.62-5.73l.31.02ZM109.11,49.07l-.97-2.09h-6.49s-.96,2.15-.96,2.15c-.45.86-1.66,1.12-2.58,1.12l5.29-11.61c.3-.67.83-1.05,1.45-1.05.62,0,1.16.38,1.47,1.05l5.23,11.47c-.98.09-2.06-.2-2.44-1.04"/>
      <path class="cls-6" d="M49.42,41c-.99-1.05-2.44-1.73-4.04-1.73-2.84,0-5.14,2.06-5.14,4.59s2.31,4.61,5.14,4.61c1.35,0,2.63-.51,3.6-1.33.67-.55,1.66-.51,2.31.04-.5.76-1.16,1.43-1.98,1.94-1.16.74-2.52,1.12-3.92,1.12-3.83,0-6.93-2.86-6.93-6.38,0-3.52,3.1-6.38,6.93-6.38,2.72,0,5.2,1.49,6.3,3.77-.7.46-1.68.4-2.27-.25"/>
      <path class="cls-6" d="M95.85,37.59v10.85c0,.97.84,1.77,1.83,1.77v-10.85c0-.97-.84-1.77-1.83-1.77"/>
    </g>
    <g>
      <path class="cls-5" d="M34.8,75.16c0,.92-.23,1.73-.68,2.42-.45.69-1.11,1.22-1.97,1.6-.86.37-1.9.56-3.13.56-.54,0-1.07-.04-1.59-.11-.52-.07-1.02-.18-1.5-.32s-.93-.31-1.35-.52v-3.1c.75.32,1.52.62,2.32.89.8.27,1.59.41,2.39.41.54,0,.98-.07,1.31-.22s.57-.34.73-.59c.15-.25.23-.54.23-.86,0-.4-.14-.73-.41-1.01-.27-.28-.63-.54-1.09-.78-.46-.24-.98-.5-1.56-.78-.37-.18-.76-.38-1.19-.63-.43-.24-.83-.54-1.22-.9-.39-.36-.71-.79-.96-1.31-.25-.51-.37-1.13-.37-1.85,0-.94.22-1.74.65-2.41s1.05-1.18,1.85-1.53c.8-.35,1.74-.53,2.83-.53.82,0,1.6.1,2.34.29.74.19,1.51.46,2.32.81l-1.08,2.6c-.72-.29-1.36-.52-1.94-.68s-1.16-.24-1.76-.24c-.41,0-.76.07-1.06.2-.29.13-.52.32-.67.55-.15.23-.23.51-.23.84,0,.37.11.68.33.93.22.26.55.5.99.74.44.24.99.51,1.65.84.81.38,1.49.78,2.06,1.19.56.41,1,.89,1.31,1.45.31.56.46,1.25.46,2.07Z"/>
      <path class="cls-5" d="M42.12,67.29c1.11,0,2.07.21,2.87.64.8.43,1.42,1.04,1.86,1.85.44.81.66,1.8.66,2.97v1.58h-7.74c.03.92.3,1.65.83,2.18.52.53,1.24.79,2.17.79.78,0,1.48-.08,2.11-.23s1.28-.39,1.96-.71v2.53c-.59.29-1.21.51-1.86.65s-1.44.21-2.36.21c-1.2,0-2.27-.22-3.19-.67s-1.65-1.13-2.18-2.04c-.53-.91-.79-2.05-.79-3.43s.24-2.58.71-3.51c.48-.93,1.14-1.63,1.99-2.1.85-.47,1.84-.7,2.97-.7ZM42.14,69.62c-.63,0-1.16.21-1.57.62-.42.41-.66,1.05-.74,1.91h4.6c0-.48-.08-.92-.25-1.3-.17-.38-.42-.68-.76-.9-.34-.22-.76-.33-1.28-.33Z"/>
      <path class="cls-5" d="M54.84,79.74c-1.19,0-2.2-.22-3.04-.65-.84-.43-1.47-1.1-1.91-2.01-.44-.91-.66-2.08-.66-3.5s.25-2.66.75-3.59c.5-.92,1.19-1.61,2.08-2.05.89-.44,1.91-.66,3.07-.66.82,0,1.54.08,2.15.24.61.16,1.14.35,1.59.57l-.97,2.53c-.51-.21-.99-.37-1.44-.51s-.89-.2-1.33-.2c-.57,0-1.05.14-1.43.41-.38.27-.66.67-.85,1.21-.18.54-.28,1.21-.28,2.01s.1,1.45.3,1.97.49.91.87,1.17c.38.26.84.38,1.39.38.69,0,1.3-.09,1.83-.27s1.04-.44,1.54-.76v2.79c-.5.32-1.02.55-1.57.69s-1.24.21-2.08.21Z"/>
      <path class="cls-5" d="M72.06,67.5v12.01h-2.51l-.44-1.54h-.18c-.25.41-.57.74-.96,1s-.82.45-1.29.57c-.47.12-.95.19-1.45.19-.85,0-1.6-.15-2.24-.46s-1.14-.78-1.5-1.43c-.35-.65-.53-1.48-.53-2.51v-7.83h3.28v7.02c0,.85.15,1.5.46,1.94.31.44.8.66,1.47.66s1.2-.15,1.57-.46c.37-.31.64-.75.79-1.34.15-.59.23-1.31.23-2.16v-5.65h3.28Z"/>
      <path class="cls-5" d="M81.98,67.29c.16,0,.35,0,.57.02s.4.04.53.07l-.24,3.08c-.1-.03-.25-.05-.45-.08-.2-.02-.37-.03-.52-.03-.43,0-.84.05-1.23.17-.4.11-.75.28-1.07.52s-.56.55-.75.93c-.18.39-.27.87-.27,1.44v6.12h-3.28v-12.01h2.49l.48,2.02h.15c.23-.41.53-.78.88-1.12.35-.34.76-.61,1.22-.81.46-.21.96-.31,1.48-.31Z"/>
      <path class="cls-5" d="M86.69,62.8c.48,0,.9.11,1.25.34.35.23.53.65.53,1.26s-.18,1.02-.53,1.25c-.35.24-.77.35-1.25.35s-.92-.12-1.27-.35c-.34-.23-.52-.65-.52-1.25s.17-1.04.52-1.26.77-.34,1.27-.34ZM88.32,67.5v12.01h-3.28v-12.01h3.28Z"/>
      <path class="cls-5" d="M96.59,77.12c.37,0,.72-.04,1.06-.11.34-.07.67-.16,1.01-.26v2.44c-.35.15-.79.27-1.31.38s-1.09.17-1.71.17c-.72,0-1.36-.12-1.92-.35-.57-.23-1.01-.64-1.34-1.22-.33-.58-.5-1.38-.5-2.41v-5.79h-1.56v-1.39l1.8-1.1.95-2.53h2.09v2.55h3.37v2.46h-3.37v5.79c0,.46.13.8.4,1.02.26.23.61.34,1.03.34Z"/>
      <path class="cls-5" d="M99.47,67.5h3.59l2.27,6.75c.07.22.14.44.19.66.05.22.09.45.13.68.04.23.06.48.08.75h.07c.04-.38.11-.74.19-1.09.08-.34.17-.68.28-1l2.22-6.75h3.52l-5.08,13.55c-.31.82-.71,1.51-1.2,2.07-.49.56-1.06.98-1.71,1.25-.65.28-1.35.42-2.11.42-.37,0-.69-.02-.96-.05-.27-.04-.51-.08-.71-.12v-2.6c.16.03.36.06.58.09s.47.04.71.04c.45,0,.85-.1,1.18-.29s.61-.45.83-.78c.22-.33.4-.69.53-1.07l.2-.59-4.77-11.92Z"/>
      <path class="cls-5" d="M126.45,79.52h-3.81l-3.65-5.94-3.65,5.94h-3.56l5.21-8.1-4.88-7.61h3.67l3.39,5.65,3.32-5.65h3.59l-4.93,7.79,5.3,7.92Z"/>
    </g>
    <g>
      <rect class="cls-1" x="46.45" y="90.57" width="57.09" height="13.5" rx="6.75" ry="6.75"/>
      <g>
        <path class="cls-6" d="M57.45,96.25h-1.2c-.03-.2-.1-.37-.19-.52-.09-.15-.21-.28-.34-.39-.14-.11-.29-.19-.46-.24-.17-.05-.36-.08-.56-.08-.36,0-.67.09-.95.27s-.49.44-.65.78c-.16.34-.23.76-.23,1.25s.08.92.24,1.26.37.6.65.77c.27.17.59.26.94.26.2,0,.38-.03.55-.08s.33-.13.46-.23c.14-.1.25-.23.35-.38.1-.15.16-.32.2-.51h1.2c-.04.32-.14.61-.29.88-.15.27-.34.51-.58.72-.24.21-.52.37-.84.49-.32.12-.67.17-1.06.17-.58,0-1.09-.13-1.54-.4s-.81-.65-1.07-1.15c-.26-.5-.39-1.11-.39-1.81s.13-1.31.39-1.81c.26-.5.62-.89,1.07-1.15.45-.27.96-.4,1.53-.4.37,0,.7.05,1.02.15.31.1.59.25.84.45.25.2.45.44.61.72.16.28.26.61.31.97Z"/>
        <path class="cls-6" d="M58.72,100.59v-6.54h4.26v.99h-3.07v1.78h2.85v.99h-2.85v1.79h3.1v.99h-4.28Z"/>
        <path class="cls-6" d="M64.37,100.59v-6.54h2.46c.5,0,.92.09,1.27.26.34.17.6.42.78.73s.26.68.26,1.1-.09.78-.27,1.09c-.18.31-.44.55-.78.71-.35.17-.77.25-1.27.25h-1.75v-.98h1.59c.29,0,.53-.04.72-.12s.33-.2.42-.36c.09-.16.14-.35.14-.59s-.05-.43-.14-.6c-.09-.17-.23-.29-.42-.38s-.43-.13-.73-.13h-1.09v5.55h-1.19ZM67.75,97.62l1.62,2.96h-1.32l-1.59-2.96h1.29Z"/>
        <path class="cls-6" d="M70.11,95.04v-.99h5.22v.99h-2.02v5.55h-1.18v-5.55h-2.02Z"/>
        <path class="cls-6" d="M77.71,94.04v6.54h-1.19v-6.54h1.19Z"/>
        <path class="cls-6" d="M79.17,100.59v-6.54h4.19v.99h-3.01v1.78h2.72v.99h-2.72v2.78h-1.19Z"/>
        <path class="cls-6" d="M85.81,94.04v6.54h-1.19v-6.54h1.19Z"/>
        <path class="cls-6" d="M87.28,100.59v-6.54h4.26v.99h-3.07v1.78h2.85v.99h-2.85v1.79h3.1v.99h-4.28Z"/>
        <path class="cls-6" d="M95.14,100.59h-2.22v-6.54h2.26c.65,0,1.21.13,1.68.39.47.26.83.64,1.08,1.12.25.49.38,1.07.38,1.75s-.12,1.27-.38,1.76c-.25.49-.62.87-1.09,1.13-.47.26-1.04.39-1.71.39ZM94.11,99.56h.97c.46,0,.84-.08,1.14-.25.3-.17.53-.42.69-.75.15-.33.23-.75.23-1.25s-.08-.92-.23-1.25c-.15-.33-.38-.58-.68-.74-.3-.17-.67-.25-1.12-.25h-1.01v4.49Z"/>
      </g>
    </g>
  </g>
</svg>